<svg width="141" height="37" viewBox="0 0 141 37" fill="none" xmlns="http://www.w3.org/2000/svg">
<g id="realgram-name 1" clip-path="url(#clip0_120_2)">
<g id="Camada_x0020_1">
<path id="Vector" d="M0 27.7309H3.50085V16.4013H11.2979C12.8891 16.4013 14.0892 16.8305 14.8979 17.6889C15.7066 18.5473 16.1114 19.7686 16.1114 21.3531V27.7309H19.6122V20.6796C19.6122 18.8836 19.2079 17.4907 18.3988 16.5004C17.5897 15.5102 16.4429 14.9226 14.9579 14.7376C15.7536 14.5792 16.549 14.2358 17.3448 13.7075C18.1406 13.1792 18.8035 12.4598 19.334 11.5487C19.8646 10.6376 20.1298 9.50845 20.1298 8.16155V7.68632C20.1298 5.91686 19.7255 4.47086 18.9164 3.34831C18.1073 2.22577 17.0004 1.38728 15.5946 0.832836C14.1891 0.278393 12.5847 0.000976562 10.7811 0.000976562H0.000391814V27.7313L0 27.7309ZM3.50085 13.1527V3.24921H10.9794C12.7563 3.24921 14.1421 3.62573 15.1365 4.37838C16.131 5.13104 16.6282 6.33942 16.6282 8.00314V8.39917C16.6282 10.0367 16.131 11.2381 15.1365 12.004C14.1421 12.7699 12.7563 13.1527 10.9794 13.1527H3.50085Z" fill="black"/>
<path id="1" d="M29.8606 28.2059C27.0231 28.2059 24.7885 27.3674 23.1574 25.6905C21.5263 24.0135 20.7109 21.6829 20.7109 18.6985V17.7874C20.7109 16.0179 21.102 14.4202 21.8844 12.9941C22.6669 11.568 23.7808 10.4322 25.2262 9.58702C26.6716 8.7419 28.3889 8.31934 30.3778 8.31934C32.4465 8.31934 34.0244 8.85427 35.1117 9.92375C36.1989 10.9932 36.7428 12.3073 36.7428 13.8653C36.7428 15.5029 36.2655 16.9356 35.3107 18.1635C34.3558 19.3914 32.9637 20.3356 31.1336 20.9958C29.3038 21.656 27.0759 21.9334 24.4504 21.8277C25.2724 24.0724 27.1026 25.1949 29.9401 25.1949C32.5923 25.1949 34.3954 24.0064 35.3503 21.6295L38.0949 22.8972C37.432 24.5874 36.4176 25.8945 35.0517 26.8189C33.6858 27.7432 31.9556 28.2055 29.8602 28.2055L29.8606 28.2059ZM23.9732 18.6193C23.9732 18.7777 23.9732 18.9228 23.9732 19.0551C27.2617 19.0286 29.6686 18.5334 31.1935 17.5697C32.7185 16.6055 33.4809 15.371 33.4809 13.8657C33.4809 13.0733 33.1761 12.4396 32.566 11.9644C31.956 11.4891 31.1869 11.2511 30.2587 11.2511C29.0652 11.2511 27.9979 11.5352 27.0564 12.1029C26.1148 12.6706 25.3657 13.4432 24.8089 14.4202C24.2521 15.3972 23.9736 16.533 23.9736 17.8272V18.6196L23.9732 18.6193Z" fill="black"/>
<path id="2" d="M52.9585 27.7307C52.9585 26.8329 52.899 25.9811 52.7795 25.1754C52.66 24.3697 52.468 23.6369 52.2027 22.9768C51.6193 24.8254 50.6645 26.1591 49.3386 26.9777C48.0127 27.7962 46.4744 28.2059 44.7242 28.2059C42.7882 28.2059 41.1904 27.6776 39.9307 26.6214C38.6711 25.5652 38.041 24.1652 38.041 22.4223C38.041 21.3661 38.3129 20.3821 38.8564 19.471C39.4002 18.56 40.2156 17.8202 41.3029 17.2525C42.3901 16.6848 43.7427 16.4007 45.3605 16.4007C46.9783 16.4007 48.4104 16.5989 49.6567 16.9949V15.7671C49.6567 14.3675 49.2986 13.2781 48.5828 12.4989C47.8665 11.7197 46.8721 11.3303 45.5991 11.3303C44.4585 11.3303 43.5436 11.6273 42.8544 12.2215C42.1649 12.8157 41.6876 13.6277 41.4224 14.6578L38.4387 13.8259C38.8101 12.2941 39.6055 10.9936 40.8256 9.92375C42.0457 8.85427 43.6631 8.31934 45.679 8.31934C47.8273 8.31934 49.5443 8.99942 50.8306 10.3596C52.1169 11.7197 52.7599 13.5618 52.7599 15.8857V18.6985C53.9005 19.6755 54.7358 20.9303 55.2659 22.4617C55.7964 23.9936 56.0617 25.7498 56.0617 27.7303H52.9589L52.9585 27.7307ZM41.3029 22.3829C41.3029 23.2807 41.6343 23.9741 42.2973 24.4626C42.9602 24.9511 43.7823 25.1953 44.7638 25.1953C46.302 25.1953 47.4755 24.7333 48.2842 23.809C49.0929 22.8847 49.5372 21.6435 49.6168 20.0852C48.5295 19.4776 47.1503 19.1741 45.4796 19.1741C43.9946 19.1741 42.9269 19.5042 42.2773 20.1644C41.6277 20.8245 41.3029 21.5639 41.3029 22.3829Z" fill="black"/>
<path id="3" d="M61.6562 27.7309C60.1975 27.7309 59.0373 27.315 58.1753 26.4831C57.3133 25.6513 56.8823 24.5619 56.8823 23.215V0.000976562H60.1442V22.8982C60.1442 23.4 60.2966 23.8026 60.6018 24.1066C60.9066 24.4101 61.3114 24.5623 61.8153 24.5623H64.3613L63.884 27.7313H61.6562V27.7309Z" fill="black"/>
<path id="4" d="M74.6102 37.0002C72.9128 37.0002 71.5936 36.5511 70.6521 35.6533C69.7105 34.7555 69.24 33.6197 69.24 32.2462C69.24 31.1104 69.5914 30.1135 70.2939 29.2555C70.9969 28.3971 71.7989 27.6776 72.7009 27.0967C71.9584 27.5192 71.1892 27.7303 70.3935 27.7303C68.9614 27.7303 67.6817 27.3737 66.5545 26.6608C65.4272 25.9476 64.5456 24.9113 63.909 23.5511C63.2726 22.1909 62.9541 20.5733 62.9541 18.6985V17.8268C62.9541 15.8989 63.3322 14.222 64.088 12.7958C64.8438 11.3697 65.8849 10.2671 67.2108 9.48792C68.5367 8.70873 70.0483 8.31934 71.7456 8.31934C74.3978 8.31934 76.4662 9.07862 77.9516 10.5972C79.4365 12.1158 80.1794 14.1822 80.1794 16.7967V30.4639C80.1794 32.3126 79.7551 33.8643 78.9064 35.1187C78.0577 36.3731 76.6257 37.0005 74.6102 37.0005V37.0002ZM71.3879 24.7197C72.0775 24.7197 72.7604 24.5546 73.4367 24.2246C74.113 23.8945 74.703 23.452 75.2069 22.8976C75.8169 22.2374 76.2546 21.5838 76.5195 20.9365C76.7847 20.2896 76.9172 19.5565 76.9172 18.7379V16.9551C76.9172 15.2384 76.4662 13.872 75.5646 12.8552C74.6631 11.8384 73.3501 11.3299 71.6265 11.3299C70.7249 11.3299 69.8629 11.5676 69.0405 12.0432C68.2185 12.5184 67.5422 13.2383 67.0117 14.2021C66.4812 15.1658 66.2159 16.4007 66.2159 17.906V18.6193C66.2159 20.1246 66.4546 21.3263 66.9322 22.2241C67.4094 23.1219 68.0395 23.7626 68.8219 24.1453C69.6044 24.5285 70.4597 24.7197 71.3879 24.7197ZM74.6897 33.9895C75.5384 33.9895 76.1218 33.7055 76.4399 33.1378C76.7581 32.5701 76.9172 31.8373 76.9172 30.9391V25.71C75.8565 26.6343 75.0012 27.4267 74.3512 28.0869C73.7015 28.7471 73.2306 29.3679 72.9391 29.9489C72.6472 30.5298 72.5014 31.1639 72.5014 31.8502C72.5014 32.4577 72.7005 32.9661 73.0982 33.3754C73.4958 33.7847 74.0264 33.9895 74.6893 33.9895H74.6897Z" fill="black"/>
<path id="5" d="M80.7612 8.51755C81.3712 8.99278 82.0804 9.40871 82.8895 9.76534C83.6986 10.122 84.6331 10.3003 85.6941 10.3003C86.7814 10.3003 87.7429 10.1286 88.5783 9.78523C89.4136 9.44188 90.1494 8.95338 90.7861 8.31934L93.2526 10.8149C92.5364 11.5016 91.8072 12.3401 91.0647 13.3304C90.3222 14.3207 89.6922 15.41 89.175 16.5985C88.6578 17.787 88.3992 19.0547 88.3992 20.4016C88.3992 21.8012 88.7174 22.8777 89.3541 23.6303C89.9904 24.383 90.8657 24.7595 91.9796 24.7595C92.5101 24.7595 92.974 24.6604 93.3717 24.4626C93.7694 24.2644 94.1275 24.0068 94.4457 23.69L96.1959 26.3838C95.6125 26.9382 94.9562 27.3479 94.2266 27.6117C93.4975 27.8758 92.6288 28.0077 91.6211 28.0077C89.6056 28.0077 88.0211 27.3542 86.8672 26.0467C85.7137 24.7396 85.1366 23.0294 85.1366 20.9166C85.1366 19.0414 85.5409 17.3578 86.35 15.8658C87.1587 14.3737 88.1336 13.0463 89.2737 11.8844C88.717 12.4654 88.0274 12.8747 87.205 13.1123C86.3829 13.3499 85.5872 13.4689 84.818 13.4689C83.9427 13.4689 82.9949 13.3437 81.9739 13.0924C80.9528 12.8415 79.9517 12.2804 78.9702 11.4088L80.7604 8.51677L80.7612 8.51755Z" fill="black"/>
<path id="6" d="M109.23 27.7307C109.23 26.8329 109.17 25.9811 109.051 25.1754C108.931 24.3697 108.739 23.6369 108.474 22.9768C107.891 24.8254 106.936 26.1591 105.61 26.9777C104.284 27.7962 102.746 28.2059 100.996 28.2059C99.0597 28.2059 97.4619 27.6776 96.2022 26.6214C94.9425 25.5652 94.3125 24.1652 94.3125 22.4223C94.3125 21.3661 94.5844 20.3821 95.1279 19.471C95.6717 18.56 96.4871 17.8202 97.5743 17.2525C98.6616 16.6848 100.014 16.4007 101.632 16.4007C103.25 16.4007 104.682 16.5989 105.928 16.9949V15.7671C105.928 14.3675 105.57 13.2781 104.854 12.4989C104.138 11.7197 103.144 11.3303 101.871 11.3303C100.73 11.3303 99.8151 11.6273 99.1259 12.2215C98.4363 12.8157 97.9591 13.6277 97.6939 14.6578L94.7102 13.8259C95.0816 12.2941 95.877 10.9936 97.0971 9.92375C98.3172 8.85427 99.9346 8.31934 101.951 8.31934C104.099 8.31934 105.816 8.99942 107.102 10.3596C108.388 11.7197 109.031 13.5618 109.031 15.8857V18.6985C110.172 19.6755 111.007 20.9303 111.537 22.4617C112.068 23.9936 112.333 25.7498 112.333 27.7303H109.23L109.23 27.7307ZM97.5743 22.3829C97.5743 23.2807 97.9058 23.9741 98.5688 24.4626C99.2317 24.9511 100.054 25.1953 101.035 25.1953C102.573 25.1953 103.747 24.7333 104.556 23.809C105.364 22.8847 105.809 21.6435 105.888 20.0852C104.801 19.4776 103.422 19.1741 101.751 19.1741C100.266 19.1741 99.1984 19.5042 98.5488 20.1644C97.8992 20.8245 97.5743 21.5639 97.5743 22.3829Z" fill="black"/>
<path id="7" d="M113.153 27.7307V8.79496H116.415V11.4095C116.919 10.3795 117.609 9.60692 118.484 9.09228C119.359 8.57724 120.327 8.31973 121.388 8.31973C122.661 8.31973 123.708 8.61665 124.531 9.21089C125.353 9.80513 125.923 10.5906 126.241 11.568C126.798 10.4587 127.554 9.64009 128.509 9.11179C129.464 8.58349 130.498 8.31934 131.612 8.31934C133.574 8.31934 135.059 8.86715 136.067 9.96316C137.075 11.0592 137.579 12.6238 137.579 14.6574V23.2538C137.579 24.2308 138.056 24.7197 139.011 24.7197H141L140.523 27.7303H138.414C137.009 27.7303 135.975 27.3343 135.312 26.5418C134.649 25.7494 134.317 24.6405 134.317 23.2144V14.7764C134.317 13.6144 134.025 12.7494 133.442 12.1817C132.858 11.614 132.076 11.3299 131.095 11.3299C129.954 11.3299 128.973 11.7919 128.151 12.7163C127.886 13.0331 127.627 13.449 127.375 13.964C127.123 14.4791 126.997 15.1459 126.997 15.9645V27.7299H123.735V14.776C123.735 13.6141 123.444 12.749 122.86 12.1813C122.277 11.6136 121.494 11.3296 120.513 11.3296C119.373 11.3296 118.391 11.7915 117.569 12.7159C117.304 13.0327 117.046 13.4486 116.794 13.9637C116.542 14.4787 116.416 15.1455 116.416 15.9641V27.7295H113.154L113.153 27.7307Z" fill="black"/>
</g>
</g>
<defs>
<clipPath id="clip0_120_2">
<rect width="141" height="37" fill="white"/>
</clipPath>
</defs>
</svg>
