<svg width="27" height="26" viewBox="0 0 27 26" fill="none" xmlns="http://www.w3.org/2000/svg">
<g id="logo 1" clip-path="url(#clip0_125_267)">
<g id="Camada_x0020_1">
<g id="_2564662110912">
<path id="Vector" fill-rule="evenodd" clip-rule="evenodd" d="M8.03041 14.3707C8.02035 14.3186 8.11012 13.5293 8.12912 13.4374C8.29773 12.6232 8.74974 11.8122 9.35646 11.2629C9.93602 10.738 10.4098 10.4356 11.2251 10.2266C11.5104 10.1535 11.8734 10.1306 12.1702 10.0989C12.6441 10.0483 13.4472 10.26 13.9009 10.4496C14.1436 10.5509 14.3695 10.6851 14.5671 10.8154L15.6367 11.8481C16.2335 12.6913 16.3257 13.2505 16.4303 14.2295C16.4809 14.7034 16.2691 15.5065 16.0796 15.9602C15.9783 16.2029 15.8441 16.4288 15.7138 16.6264L15.1742 17.2718C13.4657 18.9074 10.9069 18.8837 9.27623 17.253C9.27067 17.2474 9.26282 17.2392 9.25737 17.2336L9.07134 17.0374C8.97679 16.9426 8.90667 16.8443 8.83316 16.7405C8.68818 16.5356 8.55615 16.3128 8.43761 16.0658C8.3253 15.8319 8.23794 15.5797 8.16728 15.3041C8.05058 14.8488 8.10167 14.7392 8.03037 14.3707L8.03041 14.3707ZM6.88372 13.9885C6.88372 14.7565 6.85968 14.8881 7.05909 15.686C7.22184 16.3374 7.70025 17.2579 8.13581 17.7436L8.43975 18.0894C8.5163 18.1659 8.53546 18.1664 8.60941 18.2256C9.18251 18.6835 9.06375 18.6882 9.92877 19.1231C11.6216 19.9742 13.817 19.7797 15.337 18.6577L15.8392 18.2425C16.1957 17.943 16.0132 18.0846 16.3156 17.7633C16.4142 17.6585 16.5111 17.5143 16.5983 17.3963C17.1181 16.6922 17.5862 15.4942 17.5862 14.6C17.5862 13.832 17.6102 13.7004 17.4108 12.9025C17.2481 12.2511 16.7696 11.3306 16.3341 10.8449C15.6047 10.0316 14.7261 9.3931 13.6267 9.11841C12.0631 8.72771 10.4245 8.97745 9.13293 9.93089L8.63067 10.346C8.38454 10.5529 8.5326 10.3823 8.30363 10.6688C7.84565 11.2419 7.84096 11.1231 7.40604 11.9881C7.13985 12.5176 6.88372 13.3661 6.88372 13.9885V13.9885Z" fill="#000"/>
<path id="Vector_2" fill-rule="evenodd" clip-rule="evenodd" d="M18.0739 8.51696C18.6869 8.51696 18.6402 9.19407 18.2579 9.31584C17.9176 9.42425 17.6252 9.13191 17.7336 8.79161C17.7786 8.65038 17.8811 8.51693 18.0739 8.51693V8.51696ZM16.5449 8.74631C16.5449 9.24824 16.5843 9.6306 17.0016 10.0479C17.9796 11.0259 19.7174 10.3423 19.7174 8.93742C19.7174 7.49249 17.9873 6.85449 17.0696 7.74205C16.8311 7.97275 16.5449 8.37367 16.5449 8.74631Z" fill="#000"/>
<path id="Vector_3" fill-rule="evenodd" clip-rule="evenodd" d="M7.31402 23.3589L7.32 23.3477L5.35865 23.3554L5.35677 23.3589C5.30786 23.3589 5.25896 23.3579 5.21021 23.3559L4.85665 23.3573V23.3256C4.51094 23.2807 4.18529 23.1948 3.92112 23.0949C3.57586 22.9643 3.09786 22.6706 2.84478 22.42C2.24249 21.8234 1.69978 20.9933 1.69978 20.0625V8.52481C1.69978 8.02014 1.96939 7.30382 2.17278 6.98902C3.28424 5.26862 4.49753 5.22832 6.59297 5.22832H12.7224C13.1034 5.22843 13.4103 5.27828 13.6509 5.12672C14.4439 4.62705 13.9644 3.58008 13.3405 3.58008H4.94473C2.45422 3.58008 0 5.9339 0 8.78232V19.8049C0 21.8871 1.26929 23.6603 2.90037 24.4762C3.38505 24.7186 4.24595 25.0072 4.94473 25.0072H18.6457C20.5672 25.0072 22.2924 23.7276 23.1445 22.0373C23.3922 21.5459 23.642 20.7277 23.642 20.0109V14.1906C23.642 13.6216 22.7243 13.1088 22.1611 13.7913C21.9889 13.9999 21.99 14.1351 21.993 14.4989C21.9939 14.6026 21.9944 14.7064 21.9948 14.8102H21.9958V19.7094H21.9933C21.9737 21.0665 21.282 22.1519 20.4597 22.7006C19.2804 23.4875 18.4006 23.3589 16.5339 23.3589H7.31406H7.31402ZM16.7598 15.1605L16.7818 15.163L16.7598 15.1411V15.1605Z" fill="#000"/>
<g id="Group">
<path id="Vector_4" fill-rule="evenodd" clip-rule="evenodd" d="M19.0924 5.19869C19.5729 5.19869 19.6086 5.06903 19.9552 4.72227C20.2549 4.42231 21.7106 2.91481 21.8223 2.88086H23.4706C23.7604 3.07497 24.398 3.78258 24.6939 4.07841C24.9125 4.29701 25.0934 4.47787 25.312 4.69651C25.6674 5.05202 25.7099 5.19869 26.2005 5.19869C26.8547 5.19869 27.3205 4.40038 26.7286 3.74348C26.3252 3.29579 25.8481 2.86324 25.415 2.43016L23.4835 0.498638C22.5053 -0.48121 22.1873 0.120852 21.1914 1.11674L18.5893 3.71696C17.9556 4.39016 18.4394 5.19869 19.0924 5.19869H19.0924Z" fill="#000"/>
<path id="Vector_5" fill-rule="evenodd" clip-rule="evenodd" d="M23.4284 2.39746C23.4089 2.77157 23.407 3.17824 23.407 3.62498V9.75438C23.4071 10.1354 23.457 10.4423 23.3054 10.6829C22.8058 11.4759 21.7588 10.9964 21.7588 10.3725V2.4085L23.4284 2.39746Z" fill="#000"/>
</g>
</g>
</g>
</g>
<defs>
<clipPath id="clip0_125_267">
<rect width="27" height="25.0068" fill="#000"/>
</clipPath>
</defs>
</svg>
